<?xml version="1.0" encoding="UTF-8" standalone="no"?>
<svg
   version="1.1"
   id="svg1"
   viewBox="0 0 1536 1024"
   xmlns="http://www.w3.org/2000/svg"
   xmlns:svg="http://www.w3.org/2000/svg">
  <defs
     id="defs1" />
  <g
     id="g1"
     transform="translate(27.728567,191.32711)">
    <path
       fill="#f9ecdf"
       d="m 693.07187,740.80395 c -41.4085,-7.50065 -73.56334,-49.35679 -87.78039,-114.26422 -1.71437,-7.82692 -3.19938,-14.31313 -3.30002,-14.41379 -0.10064,-0.10067 -0.16169,21.26699 -0.13567,47.48368 0.026,26.2167 -0.11968,54.30422 -0.32377,62.41672 l -0.37109,14.75 h -31.45761 c -24.3089,0 -31.53879,-0.28406 -31.81483,-1.25 -0.19647,-0.6875 -6.97212,-25.775 -15.05699,-55.75 -22.82501,-84.62472 -36.71787,-135.45955 -37.1475,-135.92506 -0.21577,-0.23378 -0.37784,31.26622 -0.36017,70 0.0177,38.73378 0.0215,82.23756 0.008,96.67506 l -0.0233,26.25 h -32.5 -32.5 v -198.5 -198.5 h 31.46146 31.46145 l 1.11687,4.25 c 0.61427,2.3375 4.9397,18.2 9.61205,35.25 4.67236,17.05 13.85794,50.575 20.4124,74.5 6.55446,23.925 14.14371,51.15 16.86501,60.5 l 4.94781,17 0.0615,-95.75 0.0615,-95.75 32.75,-2.2e-4 32.75,-2.3e-4 -0.32554,78.24243 c -0.17905,43.03334 -0.10615,78.02094 0.162,77.75023 0.26815,-0.27072 1.64663,-7.02474 3.0633,-15.00895 1.41666,-7.9842 4.56583,-21.71115 6.99816,-30.50433 18.43332,-66.63892 49.60547,-106.86257 87.98567,-113.53419 10.19336,-1.77192 31.542,-0.7293 38.89171,1.89937 14.80018,5.29338 27.18104,14.92654 36.42963,28.34477 6.86125,9.95456 10.41185,17.32768 14.59662,30.31112 6.70398,20.7994 9.67766,41.76063 9.69025,68.30572 l 0.008,17.30573 -26.75,-0.29089 c -14.7125,-0.15999 -31.52654,-0.43781 -37.36454,-0.61739 l -10.61453,-0.32649 -0.56731,-19.68834 c -0.79706,-27.66255 -3.96113,-38.71 -12.20759,-42.6232 -4.20116,-1.99358 -8.83868,-0.9682 -12.27417,2.71388 -7.82961,8.39161 -14.38659,35.84275 -18.32558,76.72098 -1.41666,14.70196 -1.39503,62.02111 0.0352,77 4.45138,46.61958 15.63044,74.88243 31.16624,78.79439 17.19536,4.32984 27.71262,-15.50864 30.50684,-57.54439 l 0.68155,-10.25 h -17.61721 -17.61721 l -0.27574,-34.12784 c -0.17846,-22.08624 0.0771,-34.26295 0.72425,-34.51074 0.55,-0.2106 21.11909,-0.26557 45.70909,-0.12216 l 44.7091,0.26074 0.2909,109.25019 0.29091,109.25019 -18.17349,-1.9e-4 -18.17348,-1.9e-4 -2.66201,-11.75 c -1.4641,-6.4625 -2.89211,-12.57928 -3.17336,-13.59283 -0.40471,-1.4585 -1.26135,-0.72854 -4.1074,3.5 -7.10358,10.55418 -20.55007,21.30529 -30.561,24.43498 -5.96896,1.86606 -22.9942,2.6838 -29.88587,1.43546 z m -478.34731,-9.52761 c 0.35728,-3.3 1.32182,-12.91224 2.14342,-21.36053 0.8216,-8.44829 2.82024,-26.67329 4.44142,-40.5 3.27927,-27.96814 16.29071,-144.73329 20.96487,-188.13947 1.65833,-15.4 5.83194,-53.53719 9.27468,-84.7493 l 6.25953,-56.74931 58.18873,-6.9e-4 58.18872,-7e-4 0.57242,4.25 c 0.59567,4.42269 2.06425,17.78521 8.05034,73.25 1.95885,18.15 6.23524,57.3 9.50307,87 3.26783,29.7 7.07272,64.575 8.45531,77.5 1.38258,12.925 3.85314,35.875 5.49012,51 1.63698,15.125 4.56116,42.575 6.49818,61 1.93701,18.425 3.79611,35.6375 4.13132,38.25 l 0.60947,4.75 H 383.04 348.58384 l -0.57927,-5.25 c -0.31861,-2.8875 -1.36114,-15.0375 -2.31674,-27 l -1.73745,-21.75 h -26.7415 -26.74149 l -0.55627,2.75 c -0.30594,1.5125 -1.45966,11.75 -2.56381,22.75 -1.10415,11 -2.26548,21.90126 -2.58072,24.22503 l -0.57317,4.22502 -35.05923,0.27498 -35.05924,0.27497 z m 116.97103,-120.25 c -0.23242,-2.0625 -1.77445,-21.75 -3.42673,-43.75 -1.65228,-22 -4.16165,-53.5 -5.57636,-70 -1.41472,-16.5 -3.3403,-39 -4.27907,-50 l -1.70685,-20 -0.75961,8.5 c -0.41778,4.675 -2.52286,27.175 -4.67796,50 -5.37171,56.89263 -11.96053,127.61034 -11.96053,128.37217 0,0.34531 7.38218,0.62783 16.40484,0.62783 h 16.40485 z m 890.86291,125.99334 -71.25,-0.25667 v -24.77473 -24.77473 l 5.979,-23.4686 c 3.2884,-12.90774 9.3678,-36.29361 13.5097,-51.96861 4.1419,-15.675 12.2822,-46.95 18.0895,-69.5 10.2296,-39.72133 35.9542,-138.20203 37.0273,-141.75 0.4977,-1.64557 -1.7723,-1.75 -38.0381,-1.75 h -38.5674 v -29.5 -29.5 h 75.4424 75.4423 l -0.049,24.25 -0.049,24.25 -10.3436,41.5 c -10.9287,43.84763 -24.1335,95.49563 -47.9456,187.52909 -7.9731,30.816 -14.4966,56.34752 -14.4966,56.7367 0,0.38918 15.1875,0.82609 33.75,0.97091 l 33.75,0.2633 0.2649,30.43506 c 0.1458,16.73928 -0.079,30.68928 -0.5,31 -0.4207,0.31072 -32.8274,0.44944 -72.0149,0.30828 z M 37.308478,538.27634 v -198.5 h 50.91204 c 54.001202,0 59.405482,0.37508 70.903682,4.921 20.88974,8.25896 38.53181,29.53012 46.53707,56.11003 5.03392,16.71418 6.11998,24.98526 6.03609,45.96897 -0.0708,17.70819 -0.31792,20.40083 -2.6894,29.30356 -4.90749,18.42305 -13.91908,32.91332 -27.0838,43.54966 l -6.62575,5.35322 6.75503,4.99999 c 13.15099,9.73418 19.71812,17.93706 27.20622,33.98277 8.11015,17.37868 11.46522,35.60295 11.47134,62.3108 0.007,29.84501 -3.6157,48.9925 -12.86967,68.02436 -11.23774,23.1117 -29.32693,36.28707 -56.27174,40.98585 -6.84236,1.19321 -19.06808,1.48979 -61.412102,1.48979 h -52.86901 z m 89.337152,138.03371 c 13.45782,-6.36656 21.68998,-23.50745 23.73022,-49.4107 1.05963,-13.45328 0.009,-28.98241 -2.68192,-39.62301 -2.32231,-9.18462 -8.75166,-21.66432 -13.87912,-26.9401 -5.13354,-5.28202 -14.49966,-10.02987 -21.75633,-11.02867 l -4.75,-0.65378 v 65.70631 65.70631 l 6.92579,-0.58063 c 4.36768,-0.36617 8.95193,-1.53915 12.41136,-3.17573 z m -4.44542,-178.47847 c 8.06512,-4.11452 14.99496,-14.50651 18.70848,-28.05524 2.51318,-9.16933 2.57382,-33.86866 0.10557,-43 -2.50385,-9.263 -6.397,-16.74816 -11.65081,-22.4004 -5.00553,-5.38513 -10.05071,-8.02363 -17.30497,-9.05005 l -4.75,-0.6721 v 53.40989 53.40989 l 5.59678,-0.87767 c 3.07822,-0.48271 7.26095,-1.72666 9.29495,-2.76432 z m 679.48573,234.69476 c 0.3325,-2.3375 1.27313,-11.225 2.09029,-19.75 0.81716,-8.525 3.29847,-34.175 5.51403,-57 2.21555,-22.825 5.15209,-53.2 6.52563,-67.5 1.37355,-14.3 5.66085,-58.4 9.52734,-98 11.27324,-115.4589 11.9489,-122.43763 12.97344,-134 0.53609,-6.05 0.97855,-12.2375 0.98326,-13.75 l 0.009,-2.75 h 59 59 v 2.33334 c 0,2.17059 3.64155,46.45404 5.97557,72.66666 0.56319,6.325 2.39101,24.55 4.06182,40.5 1.67081,15.95 3.58341,34.4 4.25022,41 1.0502,10.3947 1.24659,0.72947 1.46807,-72.25 l 0.25568,-84.25 h 23.86596 23.86595 l 3.2202,12.25 c 12.2732,46.68893 52.3592,188.76805 54.1,191.75 0.5051,0.8652 0.8886,-41.98349 0.9061,-101.25 l 0.03,-102.75 h 30 30 v 198.5 198.5 l -29.75,-0.0137 -29.75,-0.0137 -4.1178,-16.23629 c -2.2647,-8.92997 -9.8719,-38.0613 -16.9048,-64.7363 -7.0328,-26.675 -16.5096,-62.9 -21.0594,-80.5 l -8.2724,-32 -0.073,96.75 -0.073,96.74999 h -49.38638 -49.38645 l -0.56979,-4.25 c -0.31338,-2.3375 -1.51925,-15.275 -2.6797,-28.75 -1.16045,-13.475 -2.31372,-25.5125 -2.56281,-26.75 l -0.45289,-2.25 h -23.35212 -23.35212 l -0.59014,4.75 c -0.32458,2.6125 -1.52109,15.1 -2.6589,27.75 -1.13781,12.65 -2.30061,24.4625 -2.584,26.25 l -0.51525,3.25 H 836.14962 801.08139 Z M 917.30848,604.86861 c 0,-1.5097 -0.44523,-7.43557 -0.9894,-13.16859 -0.54417,-5.73303 -2.12482,-23.69868 -3.51255,-39.92368 -1.38773,-16.225 -3.85329,-43 -5.47902,-59.5 -1.62573,-16.5 -3.66839,-38.775 -4.53925,-49.5 -1.79629,-22.12211 -3.15384,-34.68382 -3.35017,-31 -0.0733,1.375 -1.69715,19.6 -3.60859,40.5 -5.69765,62.29913 -13.52102,151.05105 -13.52102,153.38884 0,2.16022 0.15184,2.17813 17.5,2.06373 l 17.5,-0.11539 z m 384.36562,128.65773 c 0.3235,-1.7875 1.5177,-12.25 2.6537,-23.25 4.4275,-42.87126 20.1889,-186.52394 23.5347,-214.5 3.2387,-27.08042 8.6599,-75.76795 9.9099,-89 0.9727,-10.29737 6.5569,-60.4871 7.0929,-63.75 l 0.5338,-3.25 h 57.2448 57.2448 l 2.2755,21.25 c 1.2516,11.6875 10.7614,97.975 21.133,191.75 10.3716,93.775 19.1695,173.5375 19.5509,177.25 l 0.6934,6.75 h -34.5712 -34.5712 l -0.5458,-3.25 c -0.5849,-3.4823 -5.5453,-55.10694 -5.5441,-57.69876 7e-4,-1.36786 -2.9546,-1.51773 -25,-1.26777 -13.7504,0.15591 -24.9998,0.60591 -24.9987,1 0,1.30929 -6.0472,54.65949 -6.5744,57.96653 l -0.5182,3.25 h -35.066 -35.066 z m 118.6344,-129.43775 c 0,-2.02825 -0.8919,-15.41575 -1.982,-29.75 -1.0902,-14.33424 -4.2415,-56.88725 -7.0031,-94.56225 -2.7615,-37.675 -5.1337,-69.4 -5.2716,-70.5 -0.257,-2.05099 -2.5989,21.66947 -10.268,104 -2.4079,25.85 -5.2999,56.57457 -6.4267,68.27682 -1.1267,11.70225 -2.0486,22.38975 -2.0486,23.75 v 2.47318 h 16.5 16.5 z M 24.771518,78.868448 c 0.51467,-4.06671 2.18307,-6.84501 4.56437,-7.6008 3.69531,-1.17285 7.97259,-1.41095 7.97259,-0.4438 0,0.52387 -1.06431,0.95249 -2.36514,0.95249 -3.3255,0 -7.36121,3.47761 -8.13753,7.01219 -0.84371,3.84136 -2.51866,3.90716 -2.03429,0.0799 z"
       id="path1" />
    <rect
       style="fill:#ffffff"
       id="rect2"
       width="79.760963"
       height="44.276752"
       x="-2.6070039"
       y="52.352043" />
  </g>
</svg>
